# Blender v2.82 (sub 7) OBJ File: 'building2.blend'
# www.blender.org
mtllib building2.mtl
o Cube
v -17.482679 80.000000 -2.961541
v 2.515448 80.000000 17.312090
v -15.960413 80.000000 4.712956
v -11.625364 80.000000 11.260738
v -5.137505 80.000000 15.684966
v 2.515446 0.000000 17.312090
v -17.482679 0.000000 -2.961541
v -5.137506 0.000000 15.684966
v -11.625364 0.000000 11.260738
v -15.960413 0.000000 4.712956
v 20.517509 80.000000 17.558407
v 22.517321 80.000000 15.585771
v 21.282804 80.000000 17.416637
v 21.931589 80.000000 16.991970
v 22.365093 80.000000 16.349054
v 22.517321 0.000000 15.585771
v 20.517509 0.000000 17.558407
v 22.365093 0.000000 16.349054
v 21.931589 0.000000 16.991970
v 21.282804 0.000000 17.416637
v 22.517321 80.000000 -20.414228
v 20.517509 80.000000 -22.386866
v 22.365093 80.000000 -21.177513
v 21.931589 80.000000 -21.820429
v 21.282804 80.000000 -22.245098
v 20.517509 0.000000 -22.386866
v 22.517321 0.000000 -20.414228
v 21.282804 0.000000 -22.245098
v 21.931589 0.000000 -21.820429
v 22.365093 0.000000 -21.177513
v -15.482866 80.000000 -21.894281
v -17.482679 80.000000 -19.866917
v -16.248161 80.000000 -21.731567
v -16.896948 80.000000 -21.289146
v -17.330452 80.000000 -20.634367
v -17.482679 0.000000 -19.866917
v -15.482866 0.000000 -21.894281
v -17.330452 0.000000 -20.634367
v -16.896948 0.000000 -21.289146
v -16.248161 0.000000 -21.731567
vt 0.000000 0.387499
vt 1.000000 0.387499
vt 1.000000 0.500012
vt 0.000000 0.500012
vt 1.000000 0.547973
vt 0.000000 0.547973
vt 1.000000 0.625000
vt 0.000000 0.625000
vt 0.000000 0.375000
vt 1.000000 0.375000
vt 1.000000 0.454202
vt 0.000000 0.454202
vt 1.000000 0.503517
vt 0.000000 0.503517
vt 1.000000 0.612148
vt 0.000000 0.612148
vt 0.000000 0.387500
vt 1.000000 0.387500
vt 1.000000 0.612500
vt 0.000000 0.612500
vt 0.000000 0.391999
vt 1.000000 0.391999
vt 1.000000 0.608001
vt 0.000000 0.608001
vt 0.125000 0.512852
vt 0.125951 0.507926
vt 0.128661 0.503746
vt 0.132716 0.500971
vt 0.137499 0.500000
vt 0.362501 0.500000
vt 0.367284 0.500959
vt 0.371339 0.503678
vt 0.374049 0.507724
vt 0.375000 0.512500
vt 0.375000 0.737500
vt 0.374049 0.742276
vt 0.371339 0.746321
vt 0.367284 0.749041
vt 0.362501 0.750000
vt 0.249988 0.750000
vt 0.202157 0.740327
vt 0.161608 0.712602
vt 0.134514 0.670774
vt 0.125000 0.621483
vt 0.625000 0.512500
vt 0.625951 0.507723
vt 0.628661 0.503678
vt 0.632716 0.500959
vt 0.637499 0.500000
vt 0.862501 0.500000
vt 0.867284 0.500971
vt 0.871339 0.503746
vt 0.874049 0.507926
vt 0.875000 0.512852
vt 0.875000 0.621483
vt 0.865486 0.670774
vt 0.838392 0.712602
vt 0.797843 0.740327
vt 0.750012 0.750000
vt 0.637499 0.750000
vt 0.632716 0.749041
vt 0.628661 0.746321
vt 0.625951 0.742276
vt 0.625000 0.737500
vt 0.000000 0.382729
vt 1.000000 0.382729
vt 0.000000 0.375000
vt 1.000000 0.375000
vt 1.000000 0.625000
vt 0.000000 0.625000
vt 0.000000 0.617271
vt 1.000000 0.617270
vt 0.000000 0.382729
vt 1.000000 0.382729
vt 0.000000 0.375000
vt 1.000000 0.375000
vt 1.000000 0.620000
vt 0.000000 0.620000
vt 0.000000 0.612580
vt 1.000000 0.612580
vt 0.000000 0.387395
vt 1.000000 0.387395
vt 0.000000 0.380000
vt 1.000000 0.380000
vt 1.000000 0.625000
vt 0.000000 0.625000
vt 0.000000 0.617080
vt 1.000000 0.617080
vn -0.0137 0.0000 0.9999
vn -0.2080 0.0000 0.9781
vn -0.5634 0.0000 0.8262
vn -0.8338 0.0000 0.5520
vn -0.9809 0.0000 0.1946
vn -1.0000 0.0000 0.0000
vn 1.0000 0.0000 0.0000
vn -0.0137 0.0000 -0.9999
vn 0.0000 -1.0000 0.0000
vn 0.0000 1.0000 -0.0000
vn 0.1821 0.0000 0.9833
vn 0.5477 0.0000 0.8367
vn 0.8291 0.0000 0.5591
vn 0.9807 0.0000 0.1956
vn 0.9807 0.0000 -0.1956
vn 0.8291 0.0000 -0.5591
vn 0.5477 0.0000 -0.8367
vn 0.1821 0.0000 -0.9833
vn -0.2080 0.0000 -0.9781
vn -0.5634 0.0000 -0.8262
vn -0.8338 0.0000 -0.5520
vn -0.9809 0.0000 -0.1946
usemtl windows
s off
f 17/1/1 11/2/1 2/3/1 6/4/1
f 6/4/2 2/3/2 5/5/2 8/6/2
f 8/6/3 5/5/3 4/7/3 9/8/3
f 9/9/4 4/10/4 3/11/4 10/12/4
f 10/12/5 3/11/5 1/13/5 7/14/5
f 7/14/6 1/13/6 32/15/6 36/16/6
f 27/17/7 21/18/7 12/19/7 16/20/7
f 37/21/8 31/22/8 22/23/8 26/24/8
usemtl rooftop
f 36/25/9 38/26/9 39/27/9 40/28/9 37/29/9 26/30/9 28/31/9 29/32/9 30/33/9 27/34/9 16/35/9 18/36/9 19/37/9 20/38/9 17/39/9 6/40/9 8/41/9 9/42/9 10/43/9 7/44/9
f 21/45/10 23/46/10 24/47/10 25/48/10 22/49/10 31/50/10 33/51/10 34/52/10 35/53/10 32/54/10 1/55/10 3/56/10 4/57/10 5/58/10 2/59/10 11/60/10 13/61/10 14/62/10 15/63/10 12/64/10
f 11/2/11 17/1/11 20/65/11 13/66/11
f 13/66/12 20/65/12 19/67/12 14/68/12
f 14/69/13 19/70/13 18/71/13 15/72/13
f 15/72/14 18/71/14 16/20/14 12/19/14
f 21/18/15 27/17/15 30/73/15 23/74/15
f 23/74/16 30/73/16 29/75/16 24/76/16
f 24/77/17 29/78/17 28/79/17 25/80/17
f 25/80/18 28/79/18 26/24/18 22/23/18
f 31/22/19 37/21/19 40/81/19 33/82/19
f 33/82/20 40/81/20 39/83/20 34/84/20
f 34/85/21 39/86/21 38/87/21 35/88/21
f 35/88/22 38/87/22 36/16/22 32/15/22
