# Blender v2.82 (sub 7) OBJ File: 'building1.blend'
# www.blender.org
mtllib building1.mtl
o Cube
v 10.000002 80.000015 -10.000002
v 10.000002 0.000000 -10.000002
v 10.000002 80.000015 10.000002
v 10.000002 0.000000 10.000002
v -10.000002 80.000015 -9.726346
v -10.000002 0.000000 -9.726346
v -10.000002 80.000015 9.726346
v -10.000002 0.000000 9.726346
vt 0.000000 0.375000
vt 1.000000 0.375000
vt 1.000000 0.625000
vt 0.000000 0.625000
vt 0.000000 0.375000
vt 1.000000 0.375000
vt 1.000000 0.625000
vt 0.000000 0.625000
vt 0.000000 0.375000
vt 1.000000 0.375000
vt 1.000000 0.625000
vt 0.000000 0.625000
vt 0.000000 0.380000
vt 1.000000 0.380000
vt 1.000000 0.620000
vt 0.000000 0.620000
vt 0.625000 0.500000
vt 0.875000 0.500000
vt 0.875000 0.750000
vt 0.625000 0.750000
vt 0.125000 0.500000
vt 0.375000 0.500000
vt 0.375000 0.750000
vt 0.125000 0.750000
vn -0.0137 0.0000 0.9999
vn -1.0000 0.0000 0.0000
vn 1.0000 0.0000 0.0000
vn -0.0137 0.0000 -0.9999
vn 0.0000 1.0000 0.0000
vn 0.0000 -1.0000 0.0000
usemtl windows
s off
f 4/1/1 3/2/1 7/3/1 8/4/1
f 8/5/2 7/6/2 5/7/2 6/8/2
f 2/9/3 1/10/3 3/11/3 4/12/3
f 6/13/4 5/14/4 1/15/4 2/16/4
usemtl rooftop
f 1/17/5 5/18/5 7/19/5 3/20/5
f 6/21/6 2/22/6 4/23/6 8/24/6
