# Blender v2.82 (sub 7) OBJ File: 'building1.blend'
# www.blender.org
mtllib building1.mtl
o Cube_Cube.001
v -24.999996 0.000012 24.999996
v -24.999996 199.999985 24.999996
v -24.999996 0.000012 -24.999996
v -24.999996 199.999985 -24.999996
v 24.999996 0.000012 24.999996
v 24.999996 199.999985 24.999996
v 24.999996 0.000012 -24.999996
v 24.999996 199.999985 -24.999996
v -24.999996 0.000012 -14.999998
v -24.999996 0.000012 -4.999999
v -24.999996 0.000012 5.000000
v -24.999996 0.000012 14.999998
v -24.999996 40.000008 24.999996
v -24.999996 80.000000 24.999996
v -24.999996 119.999992 24.999996
v -24.999996 159.999985 24.999996
v -24.999996 199.999985 14.999998
v -24.999996 199.999985 4.999999
v -24.999996 199.999985 -5.000000
v -24.999996 199.999985 -14.999998
v -24.999996 159.999985 -24.999996
v -24.999996 119.999992 -24.999996
v -24.999996 79.999992 -24.999996
v -24.999996 40.000004 -24.999996
v 14.999998 0.000012 -24.999996
v 4.999999 0.000012 -24.999996
v -5.000000 0.000012 -24.999996
v -14.999998 0.000012 -24.999996
v -14.999998 199.999985 -24.999996
v -4.999999 199.999985 -24.999996
v 5.000000 199.999985 -24.999996
v 14.999998 199.999985 -24.999996
v 24.999996 159.999985 -24.999996
v 24.999996 119.999992 -24.999996
v 24.999996 79.999992 -24.999996
v 24.999996 40.000004 -24.999996
v 24.999996 0.000012 14.999998
v 24.999996 0.000012 4.999999
v 24.999996 0.000012 -5.000000
v 24.999996 0.000012 -14.999998
v 24.999996 199.999985 -14.999998
v 24.999996 199.999985 -4.999999
v 24.999996 199.999985 5.000000
v 24.999996 199.999985 14.999998
v 24.999996 159.999985 24.999996
v 24.999996 119.999992 24.999996
v 24.999996 79.999992 24.999996
v 24.999996 40.000004 24.999996
v -14.999998 0.000012 24.999996
v -4.999999 0.000012 24.999996
v 5.000000 0.000012 24.999996
v 14.999998 0.000012 24.999996
v 14.999998 199.999985 24.999996
v 4.999999 199.999985 24.999996
v -5.000000 199.999985 24.999996
v -14.999998 199.999985 24.999996
v 14.999998 199.999985 -14.999998
v 14.999998 199.999985 -4.999999
v 14.999998 199.999985 5.000000
v 14.999998 199.999985 14.999998
v 5.000000 199.999985 -14.999998
v 5.000000 199.999985 -4.999999
v 5.000000 199.999985 5.000000
v 4.999999 199.999985 14.999998
v -4.999999 199.999985 -14.999998
v -4.999999 199.999985 -4.999999
v -5.000000 199.999985 5.000000
v -5.000000 199.999985 14.999998
v -14.999998 199.999985 -14.999998
v -14.999998 199.999985 -4.999999
v -14.999998 199.999985 5.000000
v -14.999998 199.999985 14.999998
v -14.999998 0.000012 -14.999998
v -14.999998 0.000012 -4.999999
v -14.999998 0.000012 5.000000
v -14.999998 0.000012 14.999998
v -5.000000 0.000012 -14.999998
v -5.000000 0.000012 -4.999999
v -5.000000 0.000012 5.000000
v -4.999999 0.000012 14.999998
v 4.999999 0.000012 -14.999998
v 4.999999 0.000012 -4.999999
v 5.000000 0.000012 5.000000
v 5.000000 0.000012 14.999998
v 14.999998 0.000012 -14.999998
v 14.999998 0.000012 -4.999999
v 14.999998 0.000012 5.000000
v 14.999998 0.000012 14.999998
v 14.999998 40.000004 24.999996
v 4.999999 40.000004 24.999996
v -5.000000 40.000004 24.999996
v -14.999998 40.000004 24.999996
v 14.999998 79.999992 24.999996
v 4.999999 79.999992 24.999996
v -5.000000 79.999992 24.999996
v -14.999998 79.999992 24.999996
v 14.999998 119.999992 24.999996
v 4.999999 119.999992 24.999996
v -5.000000 119.999992 24.999996
v -14.999998 119.999992 24.999996
v 14.999998 159.999985 24.999996
v 4.999999 159.999985 24.999996
v -5.000000 159.999985 24.999996
v -14.999998 159.999985 24.999996
v 24.999996 40.000004 -14.999998
v 24.999996 40.000004 -4.999999
v 24.999996 40.000004 5.000000
v 24.999996 40.000004 14.999998
v 24.999996 79.999992 -14.999998
v 24.999996 79.999992 -4.999999
v 24.999996 79.999992 5.000000
v 24.999996 79.999992 14.999998
v 24.999996 119.999992 -14.999998
v 24.999996 119.999992 -4.999999
v 24.999996 119.999992 5.000000
v 24.999996 119.999992 14.999998
v 24.999996 159.999985 -14.999998
v 24.999996 159.999985 -4.999999
v 24.999996 159.999985 5.000000
v 24.999996 159.999985 14.999998
v -14.999998 40.000004 -24.999996
v -4.999999 40.000004 -24.999996
v 5.000000 40.000004 -24.999996
v 14.999998 40.000004 -24.999996
v -14.999998 79.999992 -24.999996
v -4.999999 79.999992 -24.999996
v 5.000000 79.999992 -24.999996
v 14.999998 79.999992 -24.999996
v -14.999998 119.999992 -24.999996
v -4.999999 119.999992 -24.999996
v 5.000000 119.999992 -24.999996
v 14.999998 119.999992 -24.999996
v -14.999998 159.999985 -24.999996
v -4.999999 159.999985 -24.999996
v 5.000000 159.999985 -24.999996
v 14.999998 159.999985 -24.999996
v -24.999996 40.000008 14.999998
v -24.999996 40.000008 4.999999
v -24.999996 40.000008 -5.000000
v -24.999996 40.000004 -14.999998
v -24.999996 80.000000 14.999998
v -24.999996 80.000000 4.999999
v -24.999996 80.000000 -5.000000
v -24.999996 79.999992 -14.999998
v -24.999996 119.999992 14.999998
v -24.999996 119.999992 4.999999
v -24.999996 119.999992 -5.000000
v -24.999996 119.999992 -14.999998
v -24.999996 159.999985 14.999998
v -24.999996 159.999985 4.999999
v -24.999996 159.999985 -5.000000
v -24.999996 159.999985 -14.999998
vt 0.325000 0.700000
vt 0.375000 0.700000
vt 0.375000 0.750000
vt 0.325000 0.750000
vt 0.825000 0.700000
vt 0.875000 0.700000
vt 0.875000 0.750000
vt 0.825000 0.750000
vt 0.625000 0.700000
vt 0.675000 0.700000
vt 0.675000 0.750000
vt 0.625000 0.750000
vt 0.725000 0.700000
vt 0.725000 0.750000
vt 0.775000 0.700000
vt 0.775000 0.750000
vt 0.625000 0.500000
vt 0.675000 0.500000
vt 0.675000 0.550000
vt 0.625000 0.550000
vt 0.675000 0.600000
vt 0.625000 0.600000
vt 0.675000 0.650000
vt 0.625000 0.650000
vt 0.725000 0.500000
vt 0.725000 0.550000
vt 0.725000 0.600000
vt 0.725000 0.650000
vt 0.775000 0.500000
vt 0.775000 0.550000
vt 0.775000 0.600000
vt 0.775000 0.650000
vt 0.825000 0.500000
vt 0.825000 0.550000
vt 0.825000 0.600000
vt 0.825000 0.650000
vt 0.875000 0.500000
vt 0.875000 0.550000
vt 0.875000 0.600000
vt 0.875000 0.650000
vt 0.125000 0.700000
vt 0.175000 0.700000
vt 0.175000 0.750000
vt 0.125000 0.750000
vt 0.225000 0.700000
vt 0.225000 0.750000
vt 0.275000 0.700000
vt 0.275000 0.750000
vt 0.125000 0.500000
vt 0.175000 0.500000
vt 0.175000 0.550000
vt 0.125000 0.550000
vt 0.175000 0.600000
vt 0.125000 0.600000
vt 0.175000 0.650000
vt 0.125000 0.650000
vt 0.225000 0.500000
vt 0.225000 0.550000
vt 0.225000 0.600000
vt 0.225000 0.650000
vt 0.275000 0.500000
vt 0.275000 0.550000
vt 0.275000 0.600000
vt 0.275000 0.650000
vt 0.325000 0.500000
vt 0.325000 0.550000
vt 0.325000 0.600000
vt 0.325000 0.650000
vt 0.375000 0.500000
vt 0.375000 0.550000
vt 0.375000 0.600000
vt 0.375000 0.650000
vt 0.575000 0.200000
vt 0.625000 0.200000
vt 0.625000 0.250000
vt 0.575000 0.250000
vt 0.575000 0.450000
vt 0.625000 0.450000
vt 0.575000 0.500000
vt 0.575000 0.700000
vt 0.575000 0.750000
vt 0.575000 0.950000
vt 0.625000 0.950000
vt 0.625000 1.000000
vt 0.575000 1.000000
vt 0.375000 0.950000
vt 0.425000 0.950000
vt 0.425000 1.000000
vt 0.375000 1.000000
vt 0.475000 0.950000
vt 0.475000 1.000000
vt 0.525000 0.950000
vt 0.525000 1.000000
vt 0.425000 0.750000
vt 0.425000 0.800000
vt 0.375000 0.800000
vt 0.425000 0.850000
vt 0.375000 0.850000
vt 0.425000 0.900000
vt 0.375000 0.900000
vt 0.475000 0.750000
vt 0.475000 0.800000
vt 0.475000 0.850000
vt 0.475000 0.900000
vt 0.525000 0.750000
vt 0.525000 0.800000
vt 0.525000 0.850000
vt 0.525000 0.900000
vt 0.575000 0.800000
vt 0.575000 0.850000
vt 0.575000 0.900000
vt 0.625000 0.800000
vt 0.625000 0.850000
vt 0.625000 0.900000
vt 0.425000 0.700000
vt 0.475000 0.700000
vt 0.525000 0.700000
vt 0.425000 0.500000
vt 0.425000 0.550000
vt 0.425000 0.600000
vt 0.425000 0.650000
vt 0.475000 0.500000
vt 0.475000 0.550000
vt 0.475000 0.600000
vt 0.475000 0.650000
vt 0.525000 0.500000
vt 0.525000 0.550000
vt 0.525000 0.600000
vt 0.525000 0.650000
vt 0.575000 0.550000
vt 0.575000 0.600000
vt 0.575000 0.650000
vt 0.375000 0.450000
vt 0.425000 0.450000
vt 0.475000 0.450000
vt 0.525000 0.450000
vt 0.375000 0.250000
vt 0.425000 0.250000
vt 0.425000 0.300000
vt 0.375000 0.300000
vt 0.425000 0.350000
vt 0.375000 0.350000
vt 0.425000 0.400000
vt 0.375000 0.400000
vt 0.475000 0.250000
vt 0.475000 0.300000
vt 0.475000 0.350000
vt 0.475000 0.400000
vt 0.525000 0.250000
vt 0.525000 0.300000
vt 0.525000 0.350000
vt 0.525000 0.400000
vt 0.575000 0.300000
vt 0.575000 0.350000
vt 0.575000 0.400000
vt 0.625000 0.300000
vt 0.625000 0.350000
vt 0.625000 0.400000
vt 0.375000 0.200000
vt 0.425000 0.200000
vt 0.475000 0.200000
vt 0.525000 0.200000
vt 0.375000 0.000000
vt 0.425000 0.000000
vt 0.425000 0.050000
vt 0.375000 0.050000
vt 0.425000 0.100000
vt 0.375000 0.100000
vt 0.425000 0.150000
vt 0.375000 0.150000
vt 0.475000 0.000000
vt 0.475000 0.050000
vt 0.475000 0.100000
vt 0.475000 0.150000
vt 0.525000 0.000000
vt 0.525000 0.050000
vt 0.525000 0.100000
vt 0.525000 0.150000
vt 0.575000 0.000000
vt 0.575000 0.050000
vt 0.575000 0.100000
vt 0.575000 0.150000
vt 0.625000 0.000000
vt 0.625000 0.050000
vt 0.625000 0.100000
vt 0.625000 0.150000
vn 0.0000 -1.0000 0.0000
vn 0.0000 1.0000 0.0000
vn -1.0000 0.0000 0.0000
vn 0.0000 0.0000 -1.0000
vn 1.0000 0.0000 0.0000
vn 0.0000 0.0000 1.0000
usemtl rooftop
s off
f 88/1/1 37/2/1 5/3/1 52/4/1
f 72/5/2 17/6/2 2/7/2 56/8/2
f 44/9/2 60/10/2 53/11/2 6/12/2
f 60/10/2 64/13/2 54/14/2 53/11/2
f 64/13/2 68/15/2 55/16/2 54/14/2
f 68/15/2 72/5/2 56/8/2 55/16/2
f 8/17/2 32/18/2 57/19/2 41/20/2
f 41/20/2 57/19/2 58/21/2 42/22/2
f 42/22/2 58/21/2 59/23/2 43/24/2
f 43/24/2 59/23/2 60/10/2 44/9/2
f 32/18/2 31/25/2 61/26/2 57/19/2
f 57/19/2 61/26/2 62/27/2 58/21/2
f 58/21/2 62/27/2 63/28/2 59/23/2
f 59/23/2 63/28/2 64/13/2 60/10/2
f 31/25/2 30/29/2 65/30/2 61/26/2
f 61/26/2 65/30/2 66/31/2 62/27/2
f 62/27/2 66/31/2 67/32/2 63/28/2
f 63/28/2 67/32/2 68/15/2 64/13/2
f 30/29/2 29/33/2 69/34/2 65/30/2
f 65/30/2 69/34/2 70/35/2 66/31/2
f 66/31/2 70/35/2 71/36/2 67/32/2
f 67/32/2 71/36/2 72/5/2 68/15/2
f 29/33/2 4/37/2 20/38/2 69/34/2
f 69/34/2 20/38/2 19/39/2 70/35/2
f 70/35/2 19/39/2 18/40/2 71/36/2
f 71/36/2 18/40/2 17/6/2 72/5/2
f 12/41/1 76/42/1 49/43/1 1/44/1
f 76/42/1 80/45/1 50/46/1 49/43/1
f 80/45/1 84/47/1 51/48/1 50/46/1
f 84/47/1 88/1/1 52/4/1 51/48/1
f 3/49/1 28/50/1 73/51/1 9/52/1
f 9/52/1 73/51/1 74/53/1 10/54/1
f 10/54/1 74/53/1 75/55/1 11/56/1
f 11/56/1 75/55/1 76/42/1 12/41/1
f 28/50/1 27/57/1 77/58/1 73/51/1
f 73/51/1 77/58/1 78/59/1 74/53/1
f 74/53/1 78/59/1 79/60/1 75/55/1
f 75/55/1 79/60/1 80/45/1 76/42/1
f 27/57/1 26/61/1 81/62/1 77/58/1
f 77/58/1 81/62/1 82/63/1 78/59/1
f 78/59/1 82/63/1 83/64/1 79/60/1
f 79/60/1 83/64/1 84/47/1 80/45/1
f 26/61/1 25/65/1 85/66/1 81/62/1
f 81/62/1 85/66/1 86/67/1 82/63/1
f 82/63/1 86/67/1 87/68/1 83/64/1
f 83/64/1 87/68/1 88/1/1 84/47/1
f 25/65/1 7/69/1 40/70/1 85/66/1
f 85/66/1 40/70/1 39/71/1 86/67/1
f 86/67/1 39/71/1 38/72/1 87/68/1
f 87/68/1 38/72/1 37/2/1 88/1/1
usemtl wall
f 152/73/3 20/74/3 4/75/3 21/76/3
f 136/77/4 32/78/4 8/17/4 33/79/4
f 120/80/5 44/9/5 6/12/5 45/81/5
f 104/82/6 56/83/6 2/84/6 16/85/6
f 49/86/6 92/87/6 13/88/6 1/89/6
f 92/87/6 96/90/6 14/91/6 13/88/6
f 96/90/6 100/92/6 15/93/6 14/91/6
f 100/92/6 104/82/6 16/85/6 15/93/6
f 5/3/6 48/94/6 89/95/6 52/96/6
f 52/96/6 89/95/6 90/97/6 51/98/6
f 51/98/6 90/97/6 91/99/6 50/100/6
f 50/100/6 91/99/6 92/87/6 49/86/6
f 48/94/6 47/101/6 93/102/6 89/95/6
f 89/95/6 93/102/6 94/103/6 90/97/6
f 90/97/6 94/103/6 95/104/6 91/99/6
f 91/99/6 95/104/6 96/90/6 92/87/6
f 47/101/6 46/105/6 97/106/6 93/102/6
f 93/102/6 97/106/6 98/107/6 94/103/6
f 94/103/6 98/107/6 99/108/6 95/104/6
f 95/104/6 99/108/6 100/92/6 96/90/6
f 46/105/6 45/81/6 101/109/6 97/106/6
f 97/106/6 101/109/6 102/110/6 98/107/6
f 98/107/6 102/110/6 103/111/6 99/108/6
f 99/108/6 103/111/6 104/82/6 100/92/6
f 45/81/6 6/12/6 53/112/6 101/109/6
f 101/109/6 53/112/6 54/113/6 102/110/6
f 102/110/6 54/113/6 55/114/6 103/111/6
f 103/111/6 55/114/6 56/83/6 104/82/6
f 37/2/5 108/115/5 48/94/5 5/3/5
f 108/115/5 112/116/5 47/101/5 48/94/5
f 112/116/5 116/117/5 46/105/5 47/101/5
f 116/117/5 120/80/5 45/81/5 46/105/5
f 7/69/5 36/118/5 105/119/5 40/70/5
f 40/70/5 105/119/5 106/120/5 39/71/5
f 39/71/5 106/120/5 107/121/5 38/72/5
f 38/72/5 107/121/5 108/115/5 37/2/5
f 36/118/5 35/122/5 109/123/5 105/119/5
f 105/119/5 109/123/5 110/124/5 106/120/5
f 106/120/5 110/124/5 111/125/5 107/121/5
f 107/121/5 111/125/5 112/116/5 108/115/5
f 35/122/5 34/126/5 113/127/5 109/123/5
f 109/123/5 113/127/5 114/128/5 110/124/5
f 110/124/5 114/128/5 115/129/5 111/125/5
f 111/125/5 115/129/5 116/117/5 112/116/5
f 34/126/5 33/79/5 117/130/5 113/127/5
f 113/127/5 117/130/5 118/131/5 114/128/5
f 114/128/5 118/131/5 119/132/5 115/129/5
f 115/129/5 119/132/5 120/80/5 116/117/5
f 33/79/5 8/17/5 41/20/5 117/130/5
f 117/130/5 41/20/5 42/22/5 118/131/5
f 118/131/5 42/22/5 43/24/5 119/132/5
f 119/132/5 43/24/5 44/9/5 120/80/5
f 25/133/4 124/134/4 36/118/4 7/69/4
f 124/134/4 128/135/4 35/122/4 36/118/4
f 128/135/4 132/136/4 34/126/4 35/122/4
f 132/136/4 136/77/4 33/79/4 34/126/4
f 3/137/4 24/138/4 121/139/4 28/140/4
f 28/140/4 121/139/4 122/141/4 27/142/4
f 27/142/4 122/141/4 123/143/4 26/144/4
f 26/144/4 123/143/4 124/134/4 25/133/4
f 24/138/4 23/145/4 125/146/4 121/139/4
f 121/139/4 125/146/4 126/147/4 122/141/4
f 122/141/4 126/147/4 127/148/4 123/143/4
f 123/143/4 127/148/4 128/135/4 124/134/4
f 23/145/4 22/149/4 129/150/4 125/146/4
f 125/146/4 129/150/4 130/151/4 126/147/4
f 126/147/4 130/151/4 131/152/4 127/148/4
f 127/148/4 131/152/4 132/136/4 128/135/4
f 22/149/4 21/76/4 133/153/4 129/150/4
f 129/150/4 133/153/4 134/154/4 130/151/4
f 130/151/4 134/154/4 135/155/4 131/152/4
f 131/152/4 135/155/4 136/77/4 132/136/4
f 21/76/4 4/75/4 29/156/4 133/153/4
f 133/153/4 29/156/4 30/157/4 134/154/4
f 134/154/4 30/157/4 31/158/4 135/155/4
f 135/155/4 31/158/4 32/78/4 136/77/4
f 9/159/3 140/160/3 24/138/3 3/137/3
f 140/160/3 144/161/3 23/145/3 24/138/3
f 144/161/3 148/162/3 22/149/3 23/145/3
f 148/162/3 152/73/3 21/76/3 22/149/3
f 1/163/3 13/164/3 137/165/3 12/166/3
f 12/166/3 137/165/3 138/167/3 11/168/3
f 11/168/3 138/167/3 139/169/3 10/170/3
f 10/170/3 139/169/3 140/160/3 9/159/3
f 13/164/3 14/171/3 141/172/3 137/165/3
f 137/165/3 141/172/3 142/173/3 138/167/3
f 138/167/3 142/173/3 143/174/3 139/169/3
f 139/169/3 143/174/3 144/161/3 140/160/3
f 14/171/3 15/175/3 145/176/3 141/172/3
f 141/172/3 145/176/3 146/177/3 142/173/3
f 142/173/3 146/177/3 147/178/3 143/174/3
f 143/174/3 147/178/3 148/162/3 144/161/3
f 15/175/3 16/179/3 149/180/3 145/176/3
f 145/176/3 149/180/3 150/181/3 146/177/3
f 146/177/3 150/181/3 151/182/3 147/178/3
f 147/178/3 151/182/3 152/73/3 148/162/3
f 16/179/3 2/183/3 17/184/3 149/180/3
f 149/180/3 17/184/3 18/185/3 150/181/3
f 150/181/3 18/185/3 19/186/3 151/182/3
f 151/182/3 19/186/3 20/74/3 152/73/3
